<svg width="34" height="34" viewBox="0 0 34 34" fill="none" xmlns="http://www.w3.org/2000/svg">
<path fill-rule="evenodd" clip-rule="evenodd" d="M10.6773 10.1116C10.4039 9.83828 9.96073 9.83828 9.68737 10.1116C9.414 10.385 9.414 10.8282 9.68737 11.1016L15.5564 16.9706L9.68738 22.8396C9.41401 23.1129 9.41401 23.5562 9.68738 23.8295C9.96074 24.1029 10.404 24.1029 10.6773 23.8295L16.5463 17.9605L22.4153 23.8295C22.6887 24.1029 23.1319 24.1029 23.4052 23.8295C23.6786 23.5562 23.6786 23.1129 23.4052 22.8396L17.5363 16.9706L23.4052 11.1016C23.6786 10.8282 23.6786 10.385 23.4053 10.1117C23.1319 9.83829 22.6887 9.83829 22.4153 10.1117L16.5463 15.9806L10.6773 10.1116Z" fill="#20314B"/>
</svg>
