<svg width="244" height="88" viewBox="0 0 244 88" fill="none" xmlns="http://www.w3.org/2000/svg">
<path fill-rule="evenodd" clip-rule="evenodd" d="M191.082 16.3848C192.159 15.5366 193.335 14.6883 194.216 13.6139C194.902 12.7657 195.391 11.6913 195.244 10.6734C194.902 8.52458 192.453 8.01564 190.25 8.52458C188.879 8.86386 187.507 9.54245 186.479 10.5603C186.038 10.9562 185.647 11.4651 185.451 11.974C185.255 12.6526 185.745 13.105 186.528 12.8788C187.116 12.7092 187.605 12.3133 188.046 11.9175C188.585 11.352 189.074 10.73 189.907 10.5603C190.446 10.4472 190.935 10.6169 190.935 11.1823C190.935 11.6347 190.543 12.0871 190.152 12.4264C189.809 12.7092 189.515 12.9919 189.172 13.2181C187.997 14.1794 186.871 15.1407 185.989 16.3282C185.598 16.8937 185.255 17.5158 185.059 18.1378C184.814 18.8729 184.716 19.608 184.863 20.2866C185.059 21.248 185.842 21.9265 186.92 21.9831C188.928 22.0396 190.984 21.87 193.09 21.5307C194.167 21.3045 195.293 20.6259 195.391 19.495C195.489 18.3074 194.314 17.9116 193.188 18.0812C191.67 18.3074 190.152 18.4771 188.634 18.6467C189.221 17.7985 190.201 17.1199 191.082 16.3848ZM163.367 38.6787C159.784 38.6787 142.087 55.3637 160.382 55.3637C175.365 55.3637 166.679 38.6787 163.367 38.6787ZM42.7615 37.9203C38.7282 37.9203 17.346 54.6053 39.2807 54.6053C56.6848 54.6053 46.7949 37.9203 42.7615 37.9203ZM79.7408 22.3376C82.3636 25.7304 83.8936 29.3968 85.7514 33.2273C86.6257 32.6801 87.7731 23.049 88.0463 21.5168C88.866 16.7559 91.8166 3.95086 98.1004 3.95086C101.434 3.95086 103.674 7.28893 104.767 10.0798C106.297 13.9103 107.226 17.6862 107.936 21.7356C108.318 23.9245 109.029 28.7401 109.575 30.7101C114.274 28.5212 123.29 23.5415 123.454 23.4868C126.459 21.8451 132.798 23.9245 129.574 29.6157C127.061 34.1029 116.078 44.336 116.078 45.4852C116.078 46.1965 125.64 51.6141 127.006 51.8877C127.224 51.5046 127.552 51.1216 127.662 50.7385C128.864 47.6741 129.356 44.7738 130.94 41.8188C136.514 31.1479 150.229 18.2881 163.069 18.6712C167.004 18.7806 170.774 19.8204 174.107 21.5715C173.451 19.3279 173.451 16.9201 174.435 14.4028C177.877 5.48309 190.773 1.21474 198.914 4.66225C204.706 7.12476 207.548 12.597 205.144 18.8901C202.193 26.6059 193.177 33.0632 185.145 31.4215C190.5 39.1921 192.631 49.3157 189.407 58.1808C184.872 70.8763 167.55 74.3239 155.638 74.3239C152.141 74.3239 139.901 72.0255 139.574 72.0802C133.017 72.6822 129.356 73.2841 122.689 71.533L110.723 66.8816C109.466 66.5533 107.936 69.18 107.116 69.8913C101.598 74.9258 92.9641 72.518 87.3907 69.1252C81.0522 73.1747 70.0146 74.7616 63.6761 69.7272C62.5833 68.8516 60.0698 65.1305 59.6873 64.9663C46.3001 73.4483 26.2466 76.0202 10.7829 72.0802C8.37871 72.0255 3.07846 68.3044 2.09491 66.1155C-0.582539 60.1508 -0.254689 54.4049 0.67422 47.8929C1.71241 40.779 3.07846 33.6651 4.28057 26.6059C5.20948 21.2431 8.7612 3.67725 15.5368 3.67725C24.0609 3.67725 24.5527 20.8054 27.2301 21.8451C29.5797 21.1337 34.2242 20.3129 36.6285 20.3129C47.9393 20.3129 55.4252 26.5512 62.5833 34.3765C62.8019 34.5954 63.0751 34.8143 63.3483 35.0332C63.9494 34.486 68.1021 25.0737 70.0146 22.5018L69.7414 21.7356C57.6656 15.7162 66.0257 -4.14805 79.6862 0.776964C83.675 2.25447 86.2978 6.41337 86.2978 10.5723C86.2978 17.7409 79.7955 21.4073 79.7408 22.3376Z" fill="#E73F39"/>
<path d="M134.83 57.1348C135.111 57.1348 135.328 57.1875 135.48 57.293C135.633 57.3867 135.744 57.5625 135.814 57.8203C135.896 58.0781 135.938 58.4531 135.938 58.9453C135.938 59.4375 135.896 59.8125 135.814 60.0703C135.744 60.3281 135.633 60.5039 135.48 60.5977C135.328 60.6914 135.111 60.7383 134.83 60.7383H133.846L132.07 77.2441C132.035 77.5371 131.953 77.7656 131.824 77.9297C131.695 78.0938 131.484 78.2109 131.191 78.2812C130.898 78.3516 130.482 78.3867 129.943 78.3867C129.17 78.3867 128.607 78.2988 128.256 78.123C127.916 77.9473 127.676 77.6543 127.535 77.2441L124.723 68.9648L121.875 77.2441C121.734 77.6543 121.488 77.9473 121.137 78.123C120.785 78.2988 120.217 78.3867 119.432 78.3867C118.893 78.3867 118.477 78.3516 118.184 78.2812C117.902 78.2109 117.697 78.0938 117.568 77.9297C117.451 77.7656 117.375 77.5371 117.34 77.2441L115.635 60.7383H114.756C114.475 60.7383 114.258 60.6914 114.105 60.5977C113.953 60.5039 113.842 60.3281 113.771 60.0703C113.689 59.8125 113.648 59.4375 113.648 58.9453C113.648 58.4531 113.689 58.0781 113.771 57.8203C113.842 57.5625 113.953 57.3867 114.105 57.293C114.258 57.1875 114.475 57.1348 114.756 57.1348H121.682C121.963 57.1348 122.18 57.1875 122.332 57.293C122.484 57.3867 122.596 57.5625 122.666 57.8203C122.748 58.0781 122.789 58.4531 122.789 58.9453C122.789 59.4375 122.748 59.8125 122.666 60.0703C122.596 60.3281 122.484 60.5039 122.332 60.5977C122.18 60.6914 121.963 60.7383 121.682 60.7383H119.625L120.557 71.0039L123.123 63.4805C123.205 63.2109 123.363 63.0059 123.598 62.8652C123.832 62.7246 124.225 62.6543 124.775 62.6543C125.361 62.6543 125.783 62.7129 126.041 62.8301C126.299 62.9355 126.463 63.1113 126.533 63.3574L129.117 71.0039L130.066 60.7383H128.256C127.975 60.7383 127.758 60.6914 127.605 60.5977C127.453 60.5039 127.336 60.3281 127.254 60.0703C127.184 59.8125 127.148 59.4375 127.148 58.9453C127.148 58.4531 127.184 58.0781 127.254 57.8203C127.336 57.5625 127.453 57.3867 127.605 57.293C127.758 57.1875 127.975 57.1348 128.256 57.1348H134.83ZM146.379 61.3711C148.16 61.3711 149.719 61.7344 151.055 62.4609C152.391 63.1875 153.416 64.1953 154.131 65.4844C154.857 66.7734 155.221 68.2383 155.221 69.8789C155.221 71.5195 154.857 72.9844 154.131 74.2734C153.416 75.5625 152.391 76.5703 151.055 77.2969C149.719 78.0234 148.16 78.3867 146.379 78.3867C144.598 78.3867 143.039 78.0234 141.703 77.2969C140.367 76.5703 139.336 75.5625 138.609 74.2734C137.895 72.9844 137.537 71.5195 137.537 69.8789C137.537 68.2383 137.895 66.7734 138.609 65.4844C139.336 64.1953 140.367 63.1875 141.703 62.4609C143.039 61.7344 144.598 61.3711 146.379 61.3711ZM146.379 65.3613C145.535 65.3613 144.803 65.5488 144.182 65.9238C143.561 66.2871 143.08 66.8086 142.74 67.4883C142.412 68.168 142.248 68.9648 142.248 69.8789C142.248 70.793 142.412 71.5898 142.74 72.2695C143.08 72.9492 143.561 73.4766 144.182 73.8516C144.803 74.2148 145.535 74.3965 146.379 74.3965C147.223 74.3965 147.955 74.2148 148.576 73.8516C149.197 73.4766 149.672 72.9492 150 72.2695C150.34 71.5898 150.51 70.793 150.51 69.8789C150.51 68.9648 150.34 68.168 150 67.4883C149.672 66.8086 149.197 66.2871 148.576 65.9238C147.955 65.5488 147.223 65.3613 146.379 65.3613ZM173.467 61.3711C174.463 61.3711 175.4 61.6992 176.279 62.3555C176.795 62.7305 177.053 63.2227 177.053 63.832C177.053 64.2188 176.947 64.6758 176.736 65.2031C176.525 65.7305 176.285 66.1289 176.016 66.3984C175.758 66.668 175.482 66.8027 175.189 66.8027C175.025 66.8027 174.85 66.7559 174.662 66.6621C174.006 66.2988 173.326 66.1172 172.623 66.1172C171.721 66.1172 170.877 66.4043 170.092 66.9785C169.307 67.5527 168.674 68.3438 168.193 69.3516C167.725 70.3594 167.49 71.4844 167.49 72.7266V74.3965H172.535C172.816 74.3965 173.033 74.4492 173.186 74.5547C173.338 74.6484 173.449 74.8242 173.52 75.082C173.602 75.3398 173.643 75.7148 173.643 76.207C173.643 76.6992 173.602 77.0742 173.52 77.332C173.449 77.5898 173.338 77.7656 173.186 77.8594C173.033 77.9531 172.816 78 172.535 78H160.512C160.23 78 160.014 77.9531 159.861 77.8594C159.709 77.7656 159.592 77.5898 159.51 77.332C159.439 77.0742 159.404 76.6992 159.404 76.207C159.404 75.7148 159.439 75.3398 159.51 75.082C159.592 74.8242 159.709 74.6484 159.861 74.5547C160.014 74.4492 160.23 74.3965 160.512 74.3965H163.096V65.3613H161.039C160.758 65.3613 160.541 65.3145 160.389 65.2207C160.236 65.127 160.119 64.9512 160.037 64.6934C159.967 64.4355 159.932 64.0605 159.932 63.5684C159.932 63.0762 159.967 62.7012 160.037 62.4434C160.119 62.1855 160.236 62.0098 160.389 61.916C160.541 61.8105 160.758 61.7578 161.039 61.7578H165.855C166.254 61.7578 166.535 61.8457 166.699 62.0215C166.875 62.1855 166.963 62.4668 166.963 62.8652V66.6797C167.842 64.9805 168.85 63.6738 169.986 62.7598C171.135 61.834 172.295 61.3711 173.467 61.3711ZM195.949 54.9375C196.348 54.9375 196.629 55.0254 196.793 55.2012C196.969 55.3652 197.057 55.6465 197.057 56.0449V74.3965H198.586C198.867 74.3965 199.084 74.4434 199.236 74.5371C199.389 74.6309 199.5 74.8066 199.57 75.0645C199.652 75.3223 199.693 75.6973 199.693 76.1895C199.693 76.6816 199.652 77.0566 199.57 77.3145C199.5 77.5723 199.389 77.7539 199.236 77.8594C199.084 77.9531 198.867 78 198.586 78H194.473C194.074 78 193.787 77.918 193.611 77.7539C193.447 77.5781 193.365 77.291 193.365 76.8926V75.416C192.756 76.3535 191.994 77.0859 191.08 77.6133C190.166 78.1289 189.152 78.3867 188.039 78.3867C186.504 78.3867 185.162 78.0117 184.014 77.2617C182.865 76.5117 181.986 75.4922 181.377 74.2031C180.768 72.9141 180.463 71.4727 180.463 69.8789C180.463 68.2852 180.768 66.8438 181.377 65.5547C181.986 64.2656 182.865 63.2461 184.014 62.4961C185.162 61.7461 186.504 61.3711 188.039 61.3711C188.953 61.3711 189.803 61.5527 190.588 61.916C191.373 62.2676 192.064 62.7773 192.662 63.4453V58.541H190.078C189.797 58.541 189.58 58.4941 189.428 58.4004C189.275 58.3066 189.158 58.1309 189.076 57.873C189.006 57.6152 188.971 57.2402 188.971 56.748C188.971 56.2559 189.006 55.8809 189.076 55.623C189.158 55.3652 189.275 55.1895 189.428 55.0957C189.58 54.9902 189.797 54.9375 190.078 54.9375H195.949ZM188.742 65.3613C188.016 65.3613 187.383 65.5488 186.844 65.9238C186.305 66.2871 185.889 66.8086 185.596 67.4883C185.314 68.168 185.174 68.9648 185.174 69.8789C185.174 70.793 185.314 71.5898 185.596 72.2695C185.889 72.9492 186.305 73.4766 186.844 73.8516C187.383 74.2148 188.016 74.3965 188.742 74.3965C189.492 74.3965 190.172 74.2207 190.781 73.8691C191.391 73.5176 191.877 73.002 192.24 72.3223C192.604 71.6309 192.785 70.8164 192.785 69.8789C192.785 68.9414 192.604 68.1328 192.24 67.4531C191.877 66.7617 191.391 66.2402 190.781 65.8887C190.172 65.5371 189.492 65.3613 188.742 65.3613ZM212.297 54.9375C212.695 54.9375 212.977 55.0254 213.141 55.2012C213.316 55.3652 213.404 55.6465 213.404 56.0449V74.3965H218.344C218.625 74.3965 218.842 74.4492 218.994 74.5547C219.146 74.6484 219.258 74.8242 219.328 75.082C219.41 75.3398 219.451 75.7148 219.451 76.207C219.451 76.6992 219.41 77.0742 219.328 77.332C219.258 77.5898 219.146 77.7656 218.994 77.8594C218.842 77.9531 218.625 78 218.344 78H204.211C203.93 78 203.713 77.9531 203.561 77.8594C203.408 77.7656 203.291 77.5898 203.209 77.332C203.139 77.0742 203.104 76.6992 203.104 76.207C203.104 75.7148 203.139 75.3398 203.209 75.082C203.291 74.8242 203.408 74.6484 203.561 74.5547C203.713 74.4492 203.93 74.3965 204.211 74.3965H209.01V58.541H204.914C204.633 58.541 204.416 58.4941 204.264 58.4004C204.111 58.3066 203.994 58.1309 203.912 57.873C203.842 57.6152 203.807 57.2402 203.807 56.748C203.807 56.2559 203.842 55.8809 203.912 55.623C203.994 55.3652 204.111 55.1895 204.264 55.0957C204.416 54.9902 204.633 54.9375 204.914 54.9375H212.297ZM232.969 61.3711C234.75 61.3711 236.268 61.7578 237.521 62.5312C238.775 63.293 239.719 64.3594 240.352 65.7305C240.996 67.0898 241.318 68.6484 241.318 70.4062C241.318 70.8047 241.23 71.0859 241.055 71.25C240.891 71.4141 240.609 71.4961 240.211 71.4961H228.926C229.148 72.4336 229.623 73.1543 230.35 73.6582C231.088 74.1504 232.02 74.3965 233.145 74.3965C234.961 74.3965 236.93 74.0742 239.051 73.4297C239.191 73.3828 239.332 73.3594 239.473 73.3594C239.73 73.3594 239.953 73.4766 240.141 73.7109C240.328 73.9453 240.498 74.3438 240.65 74.9062C240.768 75.3398 240.826 75.709 240.826 76.0137C240.826 76.3184 240.756 76.5586 240.615 76.7344C240.486 76.8984 240.27 77.0332 239.965 77.1387C238.793 77.5254 237.598 77.8301 236.379 78.0527C235.16 78.2754 233.965 78.3867 232.793 78.3867C231.012 78.3867 229.477 78.0234 228.188 77.2969C226.898 76.5703 225.914 75.5684 225.234 74.291C224.566 73.002 224.232 71.5312 224.232 69.8789C224.232 68.2383 224.584 66.7734 225.287 65.4844C225.99 64.1953 227.004 63.1875 228.328 62.4609C229.652 61.7344 231.199 61.3711 232.969 61.3711ZM232.969 65.3613C230.824 65.3613 229.5 66.2637 228.996 68.0684H236.73C236.531 67.2129 236.104 66.5508 235.447 66.082C234.803 65.6016 233.977 65.3613 232.969 65.3613Z" fill="#20314B"/>
<path d="M135.48 57.293L134.911 58.1152L134.933 58.1305L134.956 58.1446L135.48 57.293ZM135.814 57.8203L134.85 58.0834L134.855 58.1036L134.862 58.1235L135.814 57.8203ZM135.814 60.0703L134.862 59.7671L134.855 59.787L134.85 59.8072L135.814 60.0703ZM133.846 60.7383V59.7383H132.947L132.851 60.6313L133.846 60.7383ZM132.07 77.2441L133.063 77.3633L133.065 77.3511L132.07 77.2441ZM128.256 78.123L127.796 79.0113L127.809 79.0175L128.256 78.123ZM127.535 77.2441L126.588 77.5658L126.589 77.5685L127.535 77.2441ZM124.723 68.9648L125.67 68.6432L124.729 65.8732L123.777 68.6396L124.723 68.9648ZM121.875 77.2441L120.929 76.9189L120.929 76.9198L121.875 77.2441ZM118.184 78.2812L117.941 79.2514L117.95 79.2536L118.184 78.2812ZM117.568 77.9297L116.755 78.5109L116.768 78.5295L116.782 78.5475L117.568 77.9297ZM117.34 77.2441L116.345 77.3469L116.346 77.3551L116.347 77.3633L117.34 77.2441ZM115.635 60.7383L116.629 60.6355L116.537 59.7383H115.635V60.7383ZM113.771 60.0703L114.736 59.8072L114.731 59.787L114.724 59.7671L113.771 60.0703ZM113.771 57.8203L114.724 58.1235L114.731 58.1036L114.736 58.0834L113.771 57.8203ZM114.105 57.293L114.63 58.1446L114.653 58.1305L114.675 58.1152L114.105 57.293ZM122.332 57.293L121.763 58.1152L121.785 58.1305L121.808 58.1446L122.332 57.293ZM122.666 57.8203L121.701 58.0834L121.707 58.1036L121.713 58.1235L122.666 57.8203ZM122.666 60.0703L121.713 59.7671L121.707 59.787L121.701 59.8072L122.666 60.0703ZM119.625 60.7383V59.7383H118.53L118.629 60.8287L119.625 60.7383ZM120.557 71.0039L119.561 71.0943L121.503 71.3268L120.557 71.0039ZM123.123 63.4805L124.069 63.8033L124.075 63.7876L124.08 63.7716L123.123 63.4805ZM126.041 62.8301L125.627 63.7404L125.645 63.7484L125.662 63.7556L126.041 62.8301ZM126.533 63.3574L125.572 63.6321L125.578 63.655L125.586 63.6776L126.533 63.3574ZM129.117 71.0039L128.17 71.3241L130.113 71.096L129.117 71.0039ZM130.066 60.7383L131.062 60.8304L131.163 59.7383H130.066V60.7383ZM127.254 60.0703L126.289 60.3334L126.295 60.3536L126.301 60.3735L127.254 60.0703ZM127.254 57.8203L126.301 57.5171L126.295 57.537L126.289 57.5572L127.254 57.8203ZM127.605 57.293L128.13 58.1446L128.153 58.1305L128.175 58.1152L127.605 57.293ZM134.83 58.1348C134.911 58.1348 134.953 58.1426 134.967 58.146C134.98 58.1491 134.954 58.1449 134.911 58.1152L136.05 56.4708C135.664 56.2038 135.216 56.1348 134.83 56.1348V58.1348ZM134.956 58.1446C134.883 58.0997 134.846 58.0499 134.833 58.0302C134.823 58.0139 134.834 58.0248 134.85 58.0834L136.779 57.5572C136.674 57.173 136.459 56.721 136.005 56.4413L134.956 58.1446ZM134.862 58.1235C134.897 58.2338 134.938 58.4864 134.938 58.9453H136.938C136.938 58.4199 136.896 57.9225 136.767 57.5171L134.862 58.1235ZM134.938 58.9453C134.938 59.4043 134.897 59.6569 134.862 59.7671L136.767 60.3735C136.896 59.9681 136.938 59.4707 136.938 58.9453H134.938ZM134.85 59.8072C134.834 59.8658 134.823 59.8767 134.833 59.8605C134.846 59.8407 134.883 59.7909 134.956 59.746L136.005 61.4493C136.459 61.1696 136.674 60.7176 136.779 60.3334L134.85 59.8072ZM134.956 59.746C134.997 59.7213 135.016 59.7207 134.992 59.7257C134.969 59.7308 134.918 59.7383 134.83 59.7383V61.7383C135.2 61.7383 135.629 61.6806 136.005 61.4493L134.956 59.746ZM134.83 59.7383H133.846V61.7383H134.83V59.7383ZM132.851 60.6313L131.076 77.1372L133.065 77.3511L134.84 60.8452L132.851 60.6313ZM131.077 77.125C131.056 77.3076 131.016 77.3398 131.038 77.3119L132.611 78.5475C132.89 78.1915 133.015 77.7666 133.063 77.3633L131.077 77.125ZM131.038 77.3119C131.067 77.2742 131.091 77.2625 131.084 77.2665C131.074 77.2717 131.037 77.2899 130.958 77.3089L131.425 79.2536C131.842 79.1534 132.293 78.9523 132.611 78.5475L131.038 77.3119ZM130.958 77.3089C130.779 77.3518 130.455 77.3867 129.943 77.3867V79.3867C130.51 79.3867 131.018 79.3513 131.425 79.2536L130.958 77.3089ZM129.943 77.3867C129.203 77.3867 128.837 77.2956 128.703 77.2286L127.809 79.0175C128.378 79.3021 129.137 79.3867 129.943 79.3867V77.3867ZM128.715 77.2348C128.635 77.1934 128.55 77.1215 128.481 76.9198L126.589 77.5685C126.801 78.1871 127.197 78.7012 127.796 79.0113L128.715 77.2348ZM128.482 76.9225L125.67 68.6432L123.776 69.2865L126.588 77.5658L128.482 76.9225ZM123.777 68.6396L120.929 76.9189L122.821 77.5694L125.668 69.2901L123.777 68.6396ZM120.929 76.9198C120.864 77.1099 120.781 77.1827 120.69 77.2286L121.584 79.0175C122.195 78.7118 122.605 78.1987 122.821 77.5685L120.929 76.9198ZM120.69 77.2286C120.557 77.295 120.187 77.3867 119.432 77.3867V79.3867C120.247 79.3867 121.013 79.3027 121.584 79.0175L120.69 77.2286ZM119.432 77.3867C118.92 77.3867 118.596 77.3518 118.417 77.3089L117.95 79.2536C118.357 79.3513 118.865 79.3867 119.432 79.3867V77.3867ZM118.426 77.3111C118.355 77.2933 118.322 77.2766 118.315 77.2724C118.31 77.2694 118.33 77.28 118.355 77.3119L116.782 78.5475C117.093 78.9428 117.527 79.1478 117.941 79.2514L118.426 77.3111ZM118.382 77.3484C118.391 77.3615 118.385 77.3565 118.372 77.319C118.359 77.2812 118.344 77.2188 118.333 77.125L116.347 77.3633C116.393 77.751 116.505 78.1615 116.755 78.5109L118.382 77.3484ZM118.335 77.1414L116.629 60.6355L114.64 60.841L116.345 77.3469L118.335 77.1414ZM115.635 59.7383H114.756V61.7383H115.635V59.7383ZM114.756 59.7383C114.668 59.7383 114.617 59.7308 114.594 59.7257C114.57 59.7207 114.589 59.7213 114.63 59.746L113.581 61.4493C113.957 61.6806 114.386 61.7383 114.756 61.7383V59.7383ZM114.63 59.746C114.703 59.7909 114.74 59.8407 114.753 59.8605C114.763 59.8767 114.752 59.8658 114.736 59.8072L112.807 60.3334C112.912 60.7176 113.127 61.1696 113.581 61.4493L114.63 59.746ZM114.724 59.7671C114.689 59.6569 114.648 59.4043 114.648 58.9453H112.648C112.648 59.4707 112.69 59.9681 112.819 60.3735L114.724 59.7671ZM114.648 58.9453C114.648 58.4864 114.689 58.2338 114.724 58.1235L112.819 57.5171C112.69 57.9225 112.648 58.4199 112.648 58.9453H114.648ZM114.736 58.0834C114.752 58.0248 114.763 58.0139 114.753 58.0302C114.74 58.0499 114.703 58.0997 114.63 58.1446L113.581 56.4413C113.127 56.721 112.912 57.173 112.807 57.5572L114.736 58.0834ZM114.675 58.1152C114.632 58.1449 114.606 58.1491 114.619 58.146C114.633 58.1426 114.675 58.1348 114.756 58.1348V56.1348C114.37 56.1348 113.922 56.2038 113.536 56.4708L114.675 58.1152ZM114.756 58.1348H121.682V56.1348H114.756V58.1348ZM121.682 58.1348C121.762 58.1348 121.805 58.1426 121.819 58.146C121.832 58.1491 121.806 58.1449 121.763 58.1152L122.901 56.4708C122.516 56.2038 122.068 56.1348 121.682 56.1348V58.1348ZM121.808 58.1446C121.735 58.0997 121.697 58.0499 121.685 58.0302C121.675 58.0139 121.685 58.0248 121.701 58.0834L123.631 57.5572C123.526 57.173 123.311 56.721 122.856 56.4413L121.808 58.1446ZM121.713 58.1235C121.748 58.2338 121.789 58.4864 121.789 58.9453H123.789C123.789 58.4199 123.748 57.9225 123.619 57.5171L121.713 58.1235ZM121.789 58.9453C121.789 59.4043 121.748 59.6569 121.713 59.7671L123.619 60.3735C123.748 59.9681 123.789 59.4707 123.789 58.9453H121.789ZM121.701 59.8072C121.685 59.8658 121.675 59.8767 121.685 59.8605C121.697 59.8407 121.735 59.7909 121.808 59.746L122.856 61.4493C123.311 61.1696 123.526 60.7176 123.631 60.3334L121.701 59.8072ZM121.808 59.746C121.848 59.7213 121.867 59.7207 121.844 59.7257C121.82 59.7308 121.769 59.7383 121.682 59.7383V61.7383C122.051 61.7383 122.48 61.6806 122.856 61.4493L121.808 59.746ZM121.682 59.7383H119.625V61.7383H121.682V59.7383ZM118.629 60.8287L119.561 71.0943L121.553 70.9135L120.621 60.6479L118.629 60.8287ZM121.503 71.3268L124.069 63.8033L122.177 63.1576L119.61 70.6811L121.503 71.3268ZM124.08 63.7716C124.084 63.7562 124.089 63.7469 124.091 63.742C124.093 63.7373 124.095 63.7355 124.095 63.7353C124.095 63.7352 124.095 63.7346 124.097 63.7333C124.099 63.7318 124.103 63.7281 124.112 63.7227L123.083 62.0077C122.629 62.2801 122.318 62.6908 122.166 63.1893L124.08 63.7716ZM124.112 63.7227C124.089 63.7365 124.117 63.7141 124.244 63.6914C124.365 63.6697 124.539 63.6543 124.775 63.6543V61.6543C124.193 61.6543 123.565 61.7189 123.083 62.0077L124.112 63.7227ZM124.775 63.6543C125.038 63.6543 125.242 63.6676 125.394 63.6887C125.469 63.6992 125.526 63.7107 125.567 63.7213C125.587 63.7265 125.602 63.7312 125.612 63.7347C125.623 63.7383 125.627 63.7405 125.627 63.7404L126.455 61.9197C125.99 61.7084 125.384 61.6543 124.775 61.6543V63.6543ZM125.662 63.7556C125.679 63.7623 125.657 63.7565 125.626 63.7233C125.612 63.7076 125.599 63.6898 125.589 63.6717C125.579 63.6538 125.574 63.6396 125.572 63.6321L127.495 63.0827C127.332 62.5131 126.932 62.1143 126.42 61.9045L125.662 63.7556ZM125.586 63.6776L128.17 71.3241L130.065 70.6838L127.481 63.0373L125.586 63.6776ZM130.113 71.096L131.062 60.8304L129.071 60.6462L128.121 70.9118L130.113 71.096ZM130.066 59.7383H128.256V61.7383H130.066V59.7383ZM128.256 59.7383C128.168 59.7383 128.117 59.7308 128.094 59.7257C128.07 59.7207 128.089 59.7213 128.13 59.746L127.081 61.4493C127.457 61.6806 127.886 61.7383 128.256 61.7383V59.7383ZM128.13 59.746C128.197 59.7872 128.228 59.8302 128.235 59.8408C128.241 59.8489 128.227 59.8306 128.207 59.7671L126.301 60.3735C126.42 60.7468 126.643 61.1795 127.081 61.4493L128.13 59.746ZM128.219 59.8072C128.184 59.679 128.148 59.4098 128.148 58.9453H126.148C126.148 59.4652 126.183 59.946 126.289 60.3334L128.219 59.8072ZM128.148 58.9453C128.148 58.4808 128.184 58.2117 128.219 58.0834L126.289 57.5572C126.183 57.9446 126.148 58.4255 126.148 58.9453H128.148ZM128.207 58.1235C128.227 58.0601 128.241 58.0417 128.235 58.0498C128.228 58.0605 128.197 58.1034 128.13 58.1446L127.081 56.4413C126.643 56.7112 126.42 57.1438 126.301 57.5171L128.207 58.1235ZM128.175 58.1152C128.132 58.1449 128.106 58.1491 128.119 58.146C128.133 58.1426 128.175 58.1348 128.256 58.1348V56.1348C127.87 56.1348 127.422 56.2038 127.036 56.4708L128.175 58.1152ZM128.256 58.1348H134.83V56.1348H128.256V58.1348ZM154.131 65.4844L153.256 65.9694L153.26 65.9754L154.131 65.4844ZM154.131 74.2734L153.26 73.7824L153.256 73.7885L154.131 74.2734ZM138.609 74.2734L137.735 74.7584L137.738 74.7645L138.609 74.2734ZM138.609 65.4844L137.738 64.9934L137.735 64.9994L138.609 65.4844ZM144.182 65.9238L144.687 66.7871L144.699 66.7799L144.182 65.9238ZM142.74 67.4883L141.846 67.041L141.84 67.0535L142.74 67.4883ZM142.74 72.2695L141.84 72.7043L141.846 72.7167L142.74 72.2695ZM144.182 73.8516L143.665 74.7077L143.677 74.7148L144.182 73.8516ZM148.576 73.8516L149.081 74.7148L149.093 74.7076L148.576 73.8516ZM150 72.2695L149.105 71.8223L149.099 71.8348L150 72.2695ZM150 67.4883L149.099 67.9231L149.106 67.9355L150 67.4883ZM148.576 65.9238L148.059 66.78L148.071 66.787L148.576 65.9238ZM146.379 62.3711C148.022 62.3711 149.411 62.7053 150.577 63.3394L151.532 61.5825C150.027 60.7635 148.298 60.3711 146.379 60.3711V62.3711ZM150.577 63.3394C151.751 63.9782 152.637 64.852 153.256 65.9693L155.005 64.9994C154.195 63.5387 153.03 62.3968 151.532 61.5825L150.577 63.3394ZM153.26 65.9754C153.893 67.0988 154.221 68.3912 154.221 69.8789H156.221C156.221 68.0854 155.822 66.4481 155.002 64.9934L153.26 65.9754ZM154.221 69.8789C154.221 71.3666 153.893 72.6591 153.26 73.7824L155.002 74.7645C155.822 73.3097 156.221 71.6724 156.221 69.8789H154.221ZM153.256 73.7885C152.637 74.9059 151.751 75.7796 150.577 76.4184L151.532 78.1754C153.03 77.361 154.195 76.2191 155.005 74.7584L153.256 73.7885ZM150.577 76.4184C149.411 77.0525 148.022 77.3867 146.379 77.3867V79.3867C148.298 79.3867 150.027 78.9943 151.532 78.1754L150.577 76.4184ZM146.379 77.3867C144.736 77.3867 143.347 77.0525 142.181 76.4184L141.225 78.1754C142.731 78.9943 144.459 79.3867 146.379 79.3867V77.3867ZM142.181 76.4184C141.005 75.7789 140.112 74.9033 139.481 73.7824L137.738 74.7645C138.56 76.2217 139.729 77.3617 141.225 78.1754L142.181 76.4184ZM139.484 73.7885C138.86 72.664 138.537 71.3694 138.537 69.8789H136.537C136.537 71.6696 136.929 73.3047 137.735 74.7584L139.484 73.7885ZM138.537 69.8789C138.537 68.3884 138.86 67.0938 139.484 65.9693L137.735 64.9994C136.929 66.4531 136.537 68.0882 136.537 69.8789H138.537ZM139.481 65.9754C140.112 64.8546 141.005 63.9789 142.181 63.3394L141.225 61.5825C139.729 62.3961 138.56 63.5361 137.738 64.9934L139.481 65.9754ZM142.181 63.3394C143.347 62.7053 144.736 62.3711 146.379 62.3711V60.3711C144.459 60.3711 142.731 60.7635 141.225 61.5825L142.181 63.3394ZM146.379 64.3613C145.383 64.3613 144.466 64.5842 143.665 65.0678L144.699 66.7799C145.14 66.5135 145.687 66.3613 146.379 66.3613V64.3613ZM143.677 65.0606C142.879 65.5275 142.267 66.1981 141.846 67.0411L143.635 67.9355C143.893 67.4191 144.242 67.0467 144.687 66.787L143.677 65.0606ZM141.84 67.0535C141.434 67.8944 141.248 68.8456 141.248 69.8789H143.248C143.248 69.0841 143.39 68.4415 143.641 67.923L141.84 67.0535ZM141.248 69.8789C141.248 70.9122 141.434 71.8634 141.84 72.7043L143.641 71.8348C143.39 71.3163 143.248 70.6737 143.248 69.8789H141.248ZM141.846 72.7167C142.266 73.5573 142.874 74.2301 143.665 74.7076L144.699 72.9955C144.247 72.7231 143.894 72.3412 143.635 71.8223L141.846 72.7167ZM143.677 74.7148C144.476 75.182 145.389 75.3965 146.379 75.3965V73.3965C145.682 73.3965 145.13 73.2476 144.687 72.9884L143.677 74.7148ZM146.379 75.3965C147.369 75.3965 148.282 75.182 149.081 74.7148L148.071 72.9884C147.628 73.2476 147.076 73.3965 146.379 73.3965V75.3965ZM149.093 74.7076C149.887 74.2282 150.492 73.5512 150.901 72.7043L149.099 71.8348C148.852 72.3472 148.507 72.7249 148.059 72.9955L149.093 74.7076ZM150.894 72.7167C151.316 71.8728 151.51 70.9171 151.51 69.8789H149.51C149.51 70.6689 149.363 71.3069 149.106 71.8223L150.894 72.7167ZM151.51 69.8789C151.51 68.8407 151.316 67.885 150.894 67.0411L149.106 67.9355C149.363 68.4509 149.51 69.0889 149.51 69.8789H151.51ZM150.901 67.0535C150.491 66.2041 149.882 65.5293 149.081 65.0606L148.071 66.787C148.512 67.0449 148.853 67.413 149.099 67.923L150.901 67.0535ZM149.093 65.0678C148.292 64.5842 147.375 64.3613 146.379 64.3613V66.3613C147.071 66.3613 147.618 66.5135 148.059 66.7799L149.093 65.0678ZM176.279 62.3555L175.681 63.1568L175.691 63.1642L176.279 62.3555ZM176.016 66.3984L175.309 65.6913L175.301 65.6992L175.293 65.7072L176.016 66.3984ZM174.662 66.6621L174.178 67.537L174.196 67.5472L174.215 67.5565L174.662 66.6621ZM168.193 69.3516L167.291 68.9212L167.287 68.9298L168.193 69.3516ZM167.49 74.3965H166.49V75.3965H167.49V74.3965ZM173.186 74.5547L172.616 75.3769L172.638 75.3922L172.661 75.4063L173.186 74.5547ZM173.52 75.082L172.555 75.3451L172.56 75.3653L172.567 75.3852L173.52 75.082ZM173.52 77.332L172.567 77.0288L172.56 77.0487L172.555 77.0689L173.52 77.332ZM173.186 77.8594L172.661 77.0077L173.186 77.8594ZM159.51 77.332L158.545 77.5951L158.551 77.6153L158.557 77.6352L159.51 77.332ZM159.51 75.082L158.557 74.7788L158.551 74.7987L158.545 74.8189L159.51 75.082ZM159.861 74.5547L160.385 75.4063L160.408 75.3922L160.431 75.3769L159.861 74.5547ZM163.096 74.3965V75.3965H164.096V74.3965H163.096ZM163.096 65.3613H164.096V64.3613H163.096V65.3613ZM160.037 64.6934L159.072 64.9565L159.078 64.9766L159.084 64.9966L160.037 64.6934ZM160.037 62.4434L159.084 62.1402L159.078 62.1601L159.072 62.1802L160.037 62.4434ZM160.389 61.916L160.913 62.7677L160.936 62.7535L160.958 62.7382L160.389 61.916ZM166.699 62.0215L165.968 62.7038L165.992 62.729L166.017 62.7525L166.699 62.0215ZM166.963 66.6797H165.963L167.851 67.1391L166.963 66.6797ZM169.986 62.7598L170.613 63.5391L170.614 63.5383L169.986 62.7598ZM173.467 62.3711C174.225 62.3711 174.956 62.6157 175.681 63.1567L176.878 61.5542C175.844 60.7827 174.7 60.3711 173.467 60.3711V62.3711ZM175.691 63.1642C175.962 63.3613 176.053 63.5596 176.053 63.832H178.053C178.053 62.8857 177.628 62.0997 176.867 61.5467L175.691 63.1642ZM176.053 63.832C176.053 64.0466 175.992 64.3721 175.808 64.8317L177.665 65.5745C177.903 64.9795 178.053 64.3909 178.053 63.832H176.053ZM175.808 64.8317C175.625 65.2894 175.447 65.5526 175.309 65.6913L176.723 67.1055C177.123 66.7052 177.426 66.1716 177.665 65.5745L175.808 64.8317ZM175.293 65.7072C175.228 65.7747 175.188 65.7977 175.176 65.8034C175.171 65.8061 175.171 65.8055 175.175 65.8044C175.18 65.8033 175.185 65.8027 175.189 65.8027V67.8027C175.825 67.8027 176.346 67.4995 176.738 67.0897L175.293 65.7072ZM175.189 65.8027C175.218 65.8027 175.195 65.8107 175.109 65.7677L174.215 67.5565C174.504 67.701 174.833 67.8027 175.189 67.8027V65.8027ZM175.146 65.7872C174.352 65.3475 173.507 65.1172 172.623 65.1172V67.1172C173.145 67.1172 173.66 67.2501 174.178 67.537L175.146 65.7872ZM172.623 65.1172C171.492 65.1172 170.444 65.4822 169.501 66.1713L170.682 67.7857C171.31 67.3264 171.95 67.1172 172.623 67.1172V65.1172ZM169.501 66.1713C168.564 66.857 167.832 67.7862 167.291 68.9212L169.096 69.7819C169.516 68.9013 170.049 68.2485 170.682 67.7857L169.501 66.1713ZM167.287 68.9298C166.75 70.0845 166.49 71.3559 166.49 72.7266H168.49C168.49 71.6128 168.7 70.6342 169.1 69.7733L167.287 68.9298ZM166.49 72.7266V74.3965H168.49V72.7266H166.49ZM167.49 75.3965H172.535V73.3965H167.49V75.3965ZM172.535 75.3965C172.616 75.3965 172.658 75.4043 172.672 75.4077C172.685 75.4108 172.659 75.4066 172.616 75.3769L173.755 73.7325C173.369 73.4655 172.921 73.3965 172.535 73.3965V75.3965ZM172.661 75.4063C172.588 75.3614 172.551 75.3116 172.538 75.2919C172.528 75.2756 172.539 75.2865 172.555 75.3451L174.484 74.8189C174.38 74.4347 174.164 73.9827 173.71 73.703L172.661 75.4063ZM172.567 75.3852C172.602 75.4955 172.643 75.7481 172.643 76.207H174.643C174.643 75.6816 174.601 75.1842 174.472 74.7788L172.567 75.3852ZM172.643 76.207C172.643 76.666 172.602 76.9186 172.567 77.0288L174.472 77.6352C174.601 77.2298 174.643 76.7325 174.643 76.207H172.643ZM172.555 77.0689C172.539 77.1275 172.528 77.1384 172.538 77.1222C172.551 77.1024 172.588 77.0526 172.661 77.0077L173.71 78.711C174.164 78.4313 174.38 77.9794 174.484 77.5951L172.555 77.0689ZM172.661 77.0077C172.702 76.983 172.721 76.9824 172.697 76.9874C172.674 76.9925 172.623 77 172.535 77V79C172.905 79 173.334 78.9423 173.71 78.711L172.661 77.0077ZM172.535 77H160.512V79H172.535V77ZM160.512 77C160.424 77 160.373 76.9925 160.35 76.9874C160.326 76.9824 160.345 76.983 160.385 77.0077L159.337 78.711C159.713 78.9423 160.142 79 160.512 79V77ZM160.385 77.0077C160.452 77.0489 160.484 77.0919 160.491 77.1025C160.497 77.1106 160.483 77.0923 160.463 77.0288L158.557 77.6352C158.676 78.0085 158.899 78.4412 159.337 78.711L160.385 77.0077ZM160.475 77.0689C160.44 76.9407 160.404 76.6716 160.404 76.207H158.404C158.404 76.7269 158.439 77.2078 158.545 77.5951L160.475 77.0689ZM160.404 76.207C160.404 75.7425 160.44 75.4734 160.475 75.3451L158.545 74.8189C158.439 75.2063 158.404 75.6872 158.404 76.207H160.404ZM160.463 75.3852C160.483 75.3218 160.497 75.3034 160.491 75.3115C160.484 75.3222 160.452 75.3651 160.385 75.4063L159.337 73.703C158.899 73.9729 158.676 74.4055 158.557 74.7788L160.463 75.3852ZM160.431 75.3769C160.388 75.4066 160.362 75.4108 160.375 75.4077C160.389 75.4043 160.431 75.3965 160.512 75.3965V73.3965C160.126 73.3965 159.678 73.4655 159.292 73.7325L160.431 75.3769ZM160.512 75.3965H163.096V73.3965H160.512V75.3965ZM164.096 74.3965V65.3613H162.096V74.3965H164.096ZM163.096 64.3613H161.039V66.3613H163.096V64.3613ZM161.039 64.3613C160.952 64.3613 160.9 64.3538 160.877 64.3488C160.854 64.3437 160.873 64.3443 160.913 64.369L159.865 66.0724C160.24 66.3037 160.67 66.3613 161.039 66.3613V64.3613ZM160.913 64.369C160.98 64.4102 161.011 64.4532 161.019 64.4639C161.024 64.472 161.01 64.4536 160.99 64.3902L159.084 64.9966C159.203 65.3699 159.426 65.8025 159.865 66.0724L160.913 64.369ZM161.002 64.4302C160.967 64.302 160.932 64.0329 160.932 63.5684H158.932C158.932 64.0882 158.967 64.5691 159.072 64.9565L161.002 64.4302ZM160.932 63.5684C160.932 63.1038 160.967 62.8347 161.002 62.7065L159.072 62.1802C158.967 62.5676 158.932 63.0485 158.932 63.5684H160.932ZM160.99 62.7466C161.01 62.6831 161.024 62.6648 161.019 62.6729C161.011 62.6835 160.98 62.7265 160.913 62.7677L159.865 61.0644C159.426 61.3342 159.203 61.7668 159.084 62.1402L160.99 62.7466ZM160.958 62.7382C160.915 62.7679 160.889 62.7722 160.902 62.769C160.916 62.7656 160.958 62.7578 161.039 62.7578V60.7578C160.653 60.7578 160.205 60.8268 159.819 61.0938L160.958 62.7382ZM161.039 62.7578H165.855V60.7578H161.039V62.7578ZM165.855 62.7578C165.919 62.7578 165.968 62.7613 166.004 62.766C166.04 62.7707 166.06 62.7761 166.067 62.7782C166.079 62.782 166.028 62.7682 165.968 62.7038L167.43 61.3392C166.984 60.8612 166.357 60.7578 165.855 60.7578V62.7578ZM166.017 62.7525C165.952 62.6924 165.939 62.6415 165.942 62.6537C165.945 62.6605 165.95 62.6802 165.955 62.7166C165.959 62.7529 165.963 62.8018 165.963 62.8652H167.963C167.963 62.3641 167.86 61.7365 167.382 61.2904L166.017 62.7525ZM165.963 62.8652V66.6797H167.963V62.8652H165.963ZM167.851 67.1391C168.685 65.5268 169.613 64.3432 170.613 63.5391L169.36 61.9805C168.086 63.0044 166.999 64.4341 166.075 66.2203L167.851 67.1391ZM170.614 63.5383C171.632 62.7179 172.577 62.3711 173.467 62.3711V60.3711C172.013 60.3711 170.638 60.95 169.359 61.9812L170.614 63.5383ZM196.793 55.2012L196.062 55.8835L196.085 55.9087L196.111 55.9322L196.793 55.2012ZM197.057 74.3965H196.057V75.3965H197.057V74.3965ZM199.57 75.0645L198.606 75.3276L198.611 75.3477L198.617 75.3677L199.57 75.0645ZM199.57 77.3145L198.617 77.0112L198.611 77.0312L198.606 77.0513L199.57 77.3145ZM199.236 77.8594L199.76 78.711L199.783 78.6969L199.806 78.6816L199.236 77.8594ZM193.611 77.7539L192.88 78.4362L192.904 78.4614L192.929 78.485L193.611 77.7539ZM193.365 75.416H194.365V72.0427L192.527 74.871L193.365 75.416ZM191.08 77.6133L191.571 78.4843L191.58 78.4795L191.08 77.6133ZM190.588 61.916L190.168 62.8236L190.179 62.8287L190.588 61.916ZM192.662 63.4453L191.917 64.1121L193.662 66.0627V63.4453H192.662ZM192.662 58.541H193.662V57.541H192.662V58.541ZM189.076 57.873L188.111 58.1362L188.117 58.1563L188.123 58.1763L189.076 57.873ZM189.076 55.623L188.123 55.3198L188.117 55.3398L188.111 55.3599L189.076 55.623ZM189.428 55.0957L189.952 55.9474L189.975 55.9332L189.997 55.9179L189.428 55.0957ZM186.844 65.9238L187.403 66.7531L187.409 66.749L187.415 66.7447L186.844 65.9238ZM185.596 67.4883L184.677 67.0925L184.674 67.0992L184.672 67.1059L185.596 67.4883ZM185.596 72.2695L184.672 72.6519L184.674 72.6586L184.677 72.6654L185.596 72.2695ZM186.844 73.8516L186.273 74.6725L186.279 74.6767L186.285 74.6808L186.844 73.8516ZM192.24 72.3223L193.122 72.7937L193.125 72.7874L192.24 72.3223ZM192.24 67.4531L191.355 67.9183L191.358 67.9245L192.24 67.4531ZM195.949 55.9375C196.013 55.9375 196.062 55.941 196.098 55.9457C196.134 55.9504 196.154 55.9558 196.161 55.9579C196.173 55.9617 196.122 55.9479 196.062 55.8835L197.524 54.5189C197.078 54.0409 196.45 53.9375 195.949 53.9375V55.9375ZM196.111 55.9322C196.046 55.8721 196.032 55.8212 196.036 55.8334C196.038 55.8402 196.044 55.8599 196.048 55.8963C196.053 55.9326 196.057 55.9815 196.057 56.0449H198.057C198.057 55.5438 197.953 54.9162 197.475 54.4701L196.111 55.9322ZM196.057 56.0449V74.3965H198.057V56.0449H196.057ZM197.057 75.3965H198.586V73.3965H197.057V75.3965ZM198.586 75.3965C198.673 75.3965 198.725 75.404 198.748 75.4091C198.771 75.4141 198.752 75.4135 198.712 75.3888L199.76 73.6855C199.385 73.4541 198.955 73.3965 198.586 73.3965V75.3965ZM198.712 75.3888C198.639 75.3438 198.602 75.2941 198.589 75.2743C198.579 75.2581 198.59 75.2689 198.606 75.3276L200.535 74.8013C200.43 74.4171 200.215 73.9652 199.76 73.6855L198.712 75.3888ZM198.617 75.3677C198.652 75.4779 198.693 75.7305 198.693 76.1895H200.693C200.693 75.664 200.652 75.1666 200.523 74.7612L198.617 75.3677ZM198.693 76.1895C198.693 76.6484 198.652 76.901 198.617 77.0112L200.523 77.6177C200.652 77.2123 200.693 76.7149 200.693 76.1895H198.693ZM198.606 77.0513C198.589 77.111 198.577 77.1288 198.581 77.1215C198.584 77.117 198.592 77.1053 198.606 77.0896C198.621 77.0736 198.641 77.0552 198.667 77.0372L199.806 78.6816C200.221 78.3937 200.43 77.9642 200.535 77.5776L198.606 77.0513ZM198.712 77.0077C198.752 76.983 198.771 76.9824 198.748 76.9874C198.725 76.9925 198.673 77 198.586 77V79C198.955 79 199.385 78.9423 199.76 78.711L198.712 77.0077ZM198.586 77H194.473V79H198.586V77ZM194.473 77C194.337 77 194.263 76.9856 194.233 76.977C194.206 76.9691 194.241 76.9739 194.294 77.0229L192.929 78.485C193.379 78.905 193.977 79 194.473 79V77ZM194.342 77.0716C194.391 77.124 194.396 77.1595 194.388 77.132C194.38 77.1019 194.365 77.0278 194.365 76.8926H192.365C192.365 77.3881 192.46 77.9862 192.88 78.4362L194.342 77.0716ZM194.365 76.8926V75.416H192.365V76.8926H194.365ZM192.527 74.871C191.998 75.6843 191.35 76.3033 190.58 76.7471L191.58 78.4795C192.639 77.8686 193.514 77.0227 194.204 75.961L192.527 74.871ZM190.589 76.7423C189.834 77.1682 188.991 77.3867 188.039 77.3867V79.3867C189.314 79.3867 190.498 79.0896 191.571 78.4843L190.589 76.7423ZM188.039 77.3867C186.674 77.3867 185.527 77.0559 184.56 76.4244L183.467 78.099C184.797 78.9675 186.334 79.3867 188.039 79.3867V77.3867ZM184.56 76.4244C183.573 75.7796 182.815 74.9047 182.281 73.7757L180.473 74.6305C181.158 76.0797 182.157 77.2439 183.467 78.099L184.56 76.4244ZM182.281 73.7757C181.742 72.6353 181.463 71.3424 181.463 69.8789H179.463C179.463 71.6029 179.793 73.1928 180.473 74.6305L182.281 73.7757ZM181.463 69.8789C181.463 68.4154 181.742 67.1225 182.281 65.9821L180.473 65.1273C179.793 66.565 179.463 68.1549 179.463 69.8789H181.463ZM182.281 65.9821C182.815 64.8531 183.573 63.9783 184.56 63.3334L183.467 61.6588C182.157 62.5139 181.158 63.6782 180.473 65.1273L182.281 65.9821ZM184.56 63.3334C185.527 62.7019 186.674 62.3711 188.039 62.3711V60.3711C186.334 60.3711 184.797 60.7903 183.467 61.6588L184.56 63.3334ZM188.039 62.3711C188.816 62.3711 189.522 62.5246 190.168 62.8236L191.008 61.0085C190.084 60.5809 189.09 60.3711 188.039 60.3711V62.3711ZM190.179 62.8287C190.831 63.1204 191.409 63.5443 191.917 64.1121L193.407 62.7785C192.72 62.0103 191.915 61.4147 190.997 61.0033L190.179 62.8287ZM193.662 63.4453V58.541H191.662V63.4453H193.662ZM192.662 57.541H190.078V59.541H192.662V57.541ZM190.078 57.541C189.991 57.541 189.939 57.5335 189.916 57.5284C189.893 57.5234 189.912 57.524 189.952 57.5487L188.904 59.252C189.28 59.4834 189.709 59.541 190.078 59.541V57.541ZM189.952 57.5487C190.019 57.5899 190.051 57.6329 190.058 57.6435C190.063 57.6516 190.049 57.6333 190.029 57.5698L188.123 58.1763C188.242 58.5496 188.465 58.9822 188.904 59.252L189.952 57.5487ZM190.041 57.6099C190.006 57.4817 189.971 57.2126 189.971 56.748H187.971C187.971 57.2679 188.006 57.7488 188.111 58.1362L190.041 57.6099ZM189.971 56.748C189.971 56.2835 190.006 56.0144 190.041 55.8862L188.111 55.3599C188.006 55.7473 187.971 56.2282 187.971 56.748H189.971ZM190.029 55.9263C190.049 55.8628 190.063 55.8444 190.058 55.8526C190.051 55.8632 190.019 55.9062 189.952 55.9474L188.904 54.244C188.465 54.5139 188.242 54.9465 188.123 55.3198L190.029 55.9263ZM189.997 55.9179C189.954 55.9476 189.928 55.9519 189.941 55.9487C189.955 55.9453 189.998 55.9375 190.078 55.9375V53.9375C189.692 53.9375 189.244 54.0065 188.859 54.2735L189.997 55.9179ZM190.078 55.9375H195.949V53.9375H190.078V55.9375ZM188.742 64.3613C187.834 64.3613 186.997 64.599 186.273 65.1029L187.415 66.7447C187.769 66.4987 188.197 66.3613 188.742 66.3613V64.3613ZM186.285 65.0946C185.566 65.5792 185.035 66.2619 184.677 67.0925L186.514 67.8841C186.742 67.3553 187.044 66.995 187.403 66.7531L186.285 65.0946ZM184.672 67.1059C184.33 67.9324 184.174 68.8644 184.174 69.8789H186.174C186.174 69.0652 186.299 68.4035 186.52 67.8706L184.672 67.1059ZM184.174 69.8789C184.174 70.8934 184.33 71.8254 184.672 72.6519L186.52 71.8872C186.299 71.3543 186.174 70.6926 186.174 69.8789H184.174ZM184.677 72.6654C185.035 73.494 185.562 74.1778 186.273 74.6725L187.415 73.0307C187.048 72.7753 186.743 72.4044 186.514 71.8737L184.677 72.6654ZM186.285 74.6808C187.008 75.1683 187.841 75.3965 188.742 75.3965V73.3965C188.19 73.3965 187.757 73.2614 187.403 73.0223L186.285 74.6808ZM188.742 75.3965C189.656 75.3965 190.51 75.1804 191.281 74.7353L190.282 73.003C189.834 73.261 189.329 73.3965 188.742 73.3965V75.3965ZM191.281 74.7353C192.067 74.2816 192.68 73.6218 193.122 72.7936L191.358 71.8509C191.074 72.3821 190.714 72.7535 190.282 73.003L191.281 74.7353ZM193.125 72.7874C193.578 71.9265 193.785 70.9462 193.785 69.8789H191.785C191.785 70.6866 191.629 71.3352 191.355 71.8571L193.125 72.7874ZM193.785 69.8789C193.785 68.8122 193.578 67.8347 193.122 66.9817L191.358 67.9245C191.629 68.431 191.785 69.0706 191.785 69.8789H193.785ZM193.125 66.988C192.684 66.1482 192.072 65.4788 191.281 65.0225L190.282 66.7549C190.709 67.0017 191.07 67.3752 191.355 67.9183L193.125 66.988ZM191.281 65.0225C190.51 64.5774 189.656 64.3613 188.742 64.3613V66.3613C189.329 66.3613 189.834 66.4968 190.282 66.7549L191.281 65.0225ZM213.141 55.2012L212.41 55.8835L212.433 55.9087L212.458 55.9322L213.141 55.2012ZM213.404 74.3965H212.404V75.3965H213.404V74.3965ZM218.994 74.5547L218.425 75.3769L218.447 75.3922L218.47 75.4063L218.994 74.5547ZM219.328 75.082L218.363 75.3451L218.369 75.3653L218.375 75.3852L219.328 75.082ZM219.328 77.332L218.375 77.0288L218.369 77.0487L218.363 77.0689L219.328 77.332ZM218.994 77.8594L218.47 77.0077L218.994 77.8594ZM203.209 77.332L202.244 77.5951L202.25 77.6153L202.256 77.6352L203.209 77.332ZM203.209 75.082L202.256 74.7788L202.25 74.7987L202.244 74.8189L203.209 75.082ZM203.561 74.5547L204.085 75.4063L204.108 75.3922L204.13 75.3769L203.561 74.5547ZM209.01 74.3965V75.3965H210.01V74.3965H209.01ZM209.01 58.541H210.01V57.541H209.01V58.541ZM203.912 57.873L202.947 58.1362L202.953 58.1563L202.959 58.1763L203.912 57.873ZM203.912 55.623L202.959 55.3198L202.953 55.3398L202.947 55.3599L203.912 55.623ZM204.264 55.0957L204.788 55.9474L204.811 55.9332L204.833 55.9179L204.264 55.0957ZM212.297 55.9375C212.36 55.9375 212.409 55.941 212.445 55.9457C212.482 55.9504 212.502 55.9558 212.508 55.9579C212.521 55.9617 212.47 55.9479 212.41 55.8835L213.872 54.5189C213.426 54.0409 212.798 53.9375 212.297 53.9375V55.9375ZM212.458 55.9322C212.394 55.8721 212.38 55.8212 212.384 55.8334C212.386 55.8402 212.391 55.8599 212.396 55.8963C212.401 55.9326 212.404 55.9815 212.404 56.0449H214.404C214.404 55.5438 214.301 54.9162 213.823 54.4701L212.458 55.9322ZM212.404 56.0449V74.3965H214.404V56.0449H212.404ZM213.404 75.3965H218.344V73.3965H213.404V75.3965ZM218.344 75.3965C218.424 75.3965 218.467 75.4043 218.481 75.4077C218.494 75.4108 218.468 75.4066 218.425 75.3769L219.563 73.7325C219.178 73.4655 218.73 73.3965 218.344 73.3965V75.3965ZM218.47 75.4063C218.397 75.3614 218.36 75.3116 218.347 75.2919C218.337 75.2756 218.347 75.2865 218.363 75.3451L220.293 74.8189C220.188 74.4347 219.973 73.9827 219.518 73.703L218.47 75.4063ZM218.375 75.3852C218.41 75.4955 218.451 75.7481 218.451 76.207H220.451C220.451 75.6816 220.41 75.1842 220.281 74.7788L218.375 75.3852ZM218.451 76.207C218.451 76.666 218.41 76.9186 218.375 77.0288L220.281 77.6352C220.41 77.2298 220.451 76.7325 220.451 76.207H218.451ZM218.363 77.0689C218.347 77.1275 218.337 77.1384 218.347 77.1222C218.36 77.1024 218.397 77.0526 218.47 77.0077L219.518 78.711C219.973 78.4313 220.188 77.9794 220.293 77.5951L218.363 77.0689ZM218.47 77.0077C218.51 76.983 218.529 76.9824 218.506 76.9874C218.483 76.9925 218.431 77 218.344 77V79C218.713 79 219.142 78.9423 219.518 78.711L218.47 77.0077ZM218.344 77H204.211V79H218.344V77ZM204.211 77C204.123 77 204.072 76.9925 204.049 76.9874C204.025 76.9824 204.044 76.983 204.085 77.0077L203.036 78.711C203.412 78.9423 203.841 79 204.211 79V77ZM204.085 77.0077C204.152 77.0489 204.183 77.0919 204.19 77.1025C204.196 77.1106 204.182 77.0923 204.162 77.0288L202.256 77.6352C202.375 78.0085 202.598 78.4412 203.036 78.711L204.085 77.0077ZM204.174 77.0689C204.139 76.9407 204.104 76.6716 204.104 76.207H202.104C202.104 76.7269 202.139 77.2078 202.244 77.5951L204.174 77.0689ZM204.104 76.207C204.104 75.7425 204.139 75.4734 204.174 75.3451L202.244 74.8189C202.139 75.2063 202.104 75.6872 202.104 76.207H204.104ZM204.162 75.3852C204.182 75.3218 204.196 75.3034 204.19 75.3115C204.183 75.3222 204.152 75.3651 204.085 75.4063L203.036 73.703C202.598 73.9729 202.375 74.4055 202.256 74.7788L204.162 75.3852ZM204.13 75.3769C204.087 75.4066 204.061 75.4108 204.074 75.4077C204.088 75.4043 204.13 75.3965 204.211 75.3965V73.3965C203.825 73.3965 203.377 73.4655 202.991 73.7325L204.13 75.3769ZM204.211 75.3965H209.01V73.3965H204.211V75.3965ZM210.01 74.3965V58.541H208.01V74.3965H210.01ZM209.01 57.541H204.914V59.541H209.01V57.541ZM204.914 57.541C204.827 57.541 204.775 57.5335 204.752 57.5284C204.729 57.5234 204.748 57.524 204.788 57.5487L203.74 59.252C204.115 59.4834 204.545 59.541 204.914 59.541V57.541ZM204.788 57.5487C204.855 57.5899 204.886 57.6329 204.894 57.6435C204.899 57.6516 204.885 57.6333 204.865 57.5698L202.959 58.1763C203.078 58.5496 203.301 58.9822 203.74 59.252L204.788 57.5487ZM204.877 57.6099C204.842 57.4817 204.807 57.2126 204.807 56.748H202.807C202.807 57.2679 202.842 57.7488 202.947 58.1362L204.877 57.6099ZM204.807 56.748C204.807 56.2835 204.842 56.0144 204.877 55.8862L202.947 55.3599C202.842 55.7473 202.807 56.2282 202.807 56.748H204.807ZM204.865 55.9263C204.885 55.8628 204.899 55.8444 204.894 55.8526C204.886 55.8632 204.855 55.9062 204.788 55.9474L203.74 54.244C203.301 54.5139 203.078 54.9465 202.959 55.3198L204.865 55.9263ZM204.833 55.9179C204.79 55.9476 204.764 55.9519 204.777 55.9487C204.791 55.9453 204.833 55.9375 204.914 55.9375V53.9375C204.528 53.9375 204.08 54.0065 203.694 54.2735L204.833 55.9179ZM204.914 55.9375H212.297V53.9375H204.914V55.9375ZM237.521 62.5312L236.996 63.3824L237.002 63.3859L237.521 62.5312ZM240.352 65.7305L239.444 66.1495L239.448 66.1589L240.352 65.7305ZM241.055 71.25L240.372 70.5189L240.36 70.5307L240.348 70.5429L241.055 71.25ZM228.926 71.4961V70.4961H227.66L227.953 71.7272L228.926 71.4961ZM230.35 73.6582L229.78 74.4799L229.787 74.4852L229.795 74.4903L230.35 73.6582ZM239.051 73.4297L239.342 74.3865L239.354 74.3826L239.367 74.3784L239.051 73.4297ZM240.65 74.9062L241.616 74.6453L241.616 74.6448L240.65 74.9062ZM240.615 76.7344L239.834 76.1097L239.829 76.1166L240.615 76.7344ZM239.965 77.1387L240.278 78.0883L240.285 78.086L240.292 78.0837L239.965 77.1387ZM225.234 74.291L224.346 74.7511L224.352 74.7608L225.234 74.291ZM228.996 68.0684L228.033 67.7994L227.679 69.0684H228.996V68.0684ZM236.73 68.0684V69.0684H237.99L237.704 67.8416L236.73 68.0684ZM235.447 66.082L234.85 66.8838L234.858 66.8899L234.866 66.8958L235.447 66.082ZM232.969 62.3711C234.604 62.3711 235.931 62.7249 236.996 63.3824L238.046 61.6801C236.605 60.7908 234.896 60.3711 232.969 60.3711V62.3711ZM237.002 63.3859C238.081 64.0412 238.892 64.9535 239.444 66.1495L241.26 65.3114C240.546 63.7653 239.47 62.5448 238.041 61.6766L237.002 63.3859ZM239.448 66.1589C240.019 67.3636 240.318 68.7718 240.318 70.4062H242.318C242.318 68.5251 241.973 66.8161 241.255 65.302L239.448 66.1589ZM240.318 70.4062C240.318 70.4697 240.315 70.5186 240.31 70.5549C240.305 70.5912 240.3 70.611 240.298 70.6177C240.294 70.63 240.308 70.5791 240.372 70.5189L241.737 71.9811C242.215 71.535 242.318 70.9074 242.318 70.4062H240.318ZM240.348 70.5429C240.412 70.4788 240.462 70.4685 240.441 70.4746C240.417 70.4815 240.347 70.4961 240.211 70.4961V72.4961C240.697 72.4961 241.314 72.405 241.762 71.9571L240.348 70.5429ZM240.211 70.4961H228.926V72.4961H240.211V70.4961ZM227.953 71.7272C228.227 72.8812 228.832 73.8224 229.78 74.4799L230.92 72.8365C230.414 72.4862 230.07 71.986 229.899 71.265L227.953 71.7272ZM229.795 74.4903C230.736 75.1179 231.875 75.3965 233.145 75.3965V73.3965C232.164 73.3965 231.439 73.1828 230.904 72.8262L229.795 74.4903ZM233.145 75.3965C235.078 75.3965 237.146 75.0536 239.342 74.3865L238.76 72.4729C236.713 73.0948 234.844 73.3965 233.145 73.3965V75.3965ZM239.367 74.3784C239.411 74.3636 239.445 74.3594 239.473 74.3594V72.3594C239.219 72.3594 238.972 72.402 238.735 72.481L239.367 74.3784ZM239.473 74.3594C239.461 74.3594 239.443 74.3579 239.422 74.3529C239.402 74.3478 239.383 74.3403 239.367 74.3322C239.336 74.3155 239.336 74.3056 239.36 74.3356L240.921 73.0862C240.579 72.6583 240.086 72.3594 239.473 72.3594V74.3594ZM239.36 74.3356C239.414 74.4035 239.541 74.6363 239.685 75.1677L241.616 74.6448C241.455 74.0512 241.242 73.4871 240.921 73.0862L239.36 74.3356ZM239.685 75.1672C239.789 75.5519 239.826 75.828 239.826 76.0137H241.826C241.826 75.5899 241.746 75.1278 241.616 74.6453L239.685 75.1672ZM239.826 76.0137C239.826 76.0908 239.817 76.1299 239.814 76.1415C239.811 76.1504 239.815 76.1344 239.834 76.1097L241.396 77.3591C241.722 76.9523 241.826 76.4655 241.826 76.0137H239.826ZM239.829 76.1166C239.851 76.0891 239.859 76.0901 239.828 76.1092C239.797 76.1286 239.737 76.1592 239.638 76.1937L240.292 78.0837C240.687 77.9471 241.106 77.7284 241.402 77.3522L239.829 76.1166ZM239.651 76.189C238.523 76.5613 237.373 76.8546 236.199 77.069L236.559 79.0365C237.822 78.8056 239.062 78.4895 240.278 78.0883L239.651 76.189ZM236.199 77.069C235.036 77.2815 233.901 77.3867 232.793 77.3867V79.3867C234.028 79.3867 235.284 79.2693 236.559 79.0365L236.199 77.069ZM232.793 77.3867C231.149 77.3867 229.79 77.0522 228.679 76.4257L227.696 78.168C229.163 78.9947 230.875 79.3867 232.793 79.3867V77.3867ZM228.679 76.4257C227.552 75.7906 226.705 74.9262 226.117 73.8213L224.352 74.7608C225.123 76.2105 226.245 77.35 227.696 78.168L228.679 76.4257ZM226.122 73.8309C225.538 72.7026 225.232 71.3934 225.232 69.8789H223.232C223.232 71.6691 223.595 73.3013 224.346 74.7511L226.122 73.8309ZM225.232 69.8789C225.232 68.3856 225.551 67.0888 226.165 65.9632L224.409 65.0055C223.617 66.4581 223.232 68.0909 223.232 69.8789H225.232ZM226.165 65.9632C226.774 64.847 227.647 63.975 228.809 63.3376L227.847 61.5842C226.36 62.4 225.207 63.5436 224.409 65.0055L226.165 65.9632ZM228.809 63.3376C229.962 62.7048 231.338 62.3711 232.969 62.3711V60.3711C231.06 60.3711 229.342 60.7639 227.847 61.5842L228.809 63.3376ZM232.969 64.3613C231.762 64.3613 230.68 64.6149 229.804 65.2117C228.915 65.8176 228.337 66.7104 228.033 67.7994L229.959 68.3373C230.159 67.6217 230.495 67.1609 230.93 66.8645C231.379 66.5589 232.031 66.3613 232.969 66.3613V64.3613ZM228.996 69.0684H236.73V67.0684H228.996V69.0684ZM237.704 67.8416C237.455 66.772 236.901 65.8915 236.029 65.2683L234.866 66.8958C235.306 67.2101 235.607 67.6538 235.757 68.2952L237.704 67.8416ZM236.045 65.2803C235.188 64.6415 234.137 64.3613 232.969 64.3613V66.3613C233.817 66.3613 234.417 66.5616 234.85 66.8838L236.045 65.2803Z" fill="white"/>
</svg>
