<svg width="121" height="42" viewBox="0 0 121 42" fill="none" xmlns="http://www.w3.org/2000/svg">
<path fillRule="evenodd" clipRule="evenodd" d="M112.89 9.12043C113.638 8.67453 114.424 8.23713 115.024 7.69104C115.497 7.24219 115.835 6.69708 115.728 6.18668C115.498 5.08894 113.825 4.83423 112.333 5.09319C111.389 5.25722 110.475 5.62815 109.767 6.13168C109.477 6.3435 109.188 6.59428 109.075 6.86831C108.927 7.22942 109.284 7.43863 109.794 7.33321C110.182 7.25299 110.544 7.05787 110.821 6.84507C111.196 6.56154 111.532 6.24135 112.086 6.14936C112.468 6.08617 112.799 6.18079 112.786 6.46332C112.775 6.70952 112.506 6.91415 112.243 7.08668C112.025 7.23008 111.799 7.36725 111.572 7.50345C110.783 7.99257 110 8.50232 109.397 9.10406C109.115 9.39348 108.901 9.70352 108.759 10.0267C108.604 10.393 108.54 10.7747 108.633 11.1277C108.766 11.6296 109.301 11.9592 110.051 11.993C111.43 12.027 112.839 11.9353 114.247 11.7638C114.989 11.66 115.761 11.294 115.825 10.7322C115.894 10.1252 115.079 9.91927 114.307 9.99522C113.271 10.1121 112.237 10.2123 111.206 10.2935C111.63 9.83676 112.299 9.47303 112.89 9.12043ZM96.8984 21C94.6594 21 83.685 31 95.0307 31C104.333 31 98.9471 21 96.8984 21ZM25.2175 21C22.8808 21 10.5519 31 23.1985 31C33.2787 31 27.542 21 25.2175 21ZM46.8139 12.5568C48.3573 14.4904 49.2391 16.5573 50.3309 18.7259C50.8402 18.4235 51.5337 12.9822 51.6893 12.1163C52.1753 9.41069 53.9026 2.17985 57.5803 2.17985C59.5368 2.17985 60.855 4.0712 61.5002 5.63812C62.3904 7.80042 62.9577 9.93824 63.3697 12.2142C63.5921 13.442 63.9994 16.172 64.3269 17.2775C67.0847 16.0346 72.3849 13.2371 72.4763 13.1882C74.2333 12.254 77.9657 13.4252 76.0814 16.6632C74.6029 19.2027 68.1656 24.9719 68.1656 25.6515C68.1656 26.041 73.798 29.1178 74.6004 29.2758C74.7251 29.072 74.9087 28.8479 74.9972 28.6277C75.6878 26.9083 75.9983 25.2669 76.9196 23.5749C80.2048 17.5432 88.2566 10.2812 95.7925 10.4777C98.1161 10.5382 100.31 11.1349 102.29 12.1313C101.904 10.871 101.908 9.4911 102.468 8.0836C104.476 3.04232 112.07 0.622015 116.844 2.57839C120.241 3.97086 121.912 7.07394 120.494 10.6343C118.753 15.0064 113.478 18.642 108.738 17.719C111.885 22.1135 113.125 27.8267 111.254 32.8624C108.59 40.0342 98.4067 42 91.4253 42C89.3738 42 82.1875 40.7096 81.9789 40.7274C78.1362 41.0592 75.9715 41.3994 72.0664 40.4331L65.0353 37.8132C64.2889 37.624 63.3951 39.1004 62.9083 39.5273C59.6583 42.3758 54.5806 41.0138 51.3338 39.0868C47.6213 41.3655 41.1137 42.2618 37.4125 39.4308C36.7563 38.9291 35.2942 36.8185 35.0827 36.7371C27.2272 41.5364 15.4408 42.981 6.33829 40.7509C4.92874 40.7302 1.81585 38.6221 1.23803 37.3919C-0.343809 34.0249 -0.150118 30.7686 0.39687 27.088C0.99355 23.0728 1.81077 19.0416 2.53041 15.0428C3.07812 11.9999 5.15653 2.08196 9.13126 2.08196C14.1383 2.08196 14.4299 11.7635 15.9875 12.361C17.372 11.9506 20.0833 11.48 21.523 11.48C28.1608 11.48 32.5697 15.004 36.7744 19.4303C36.9025 19.5653 37.0726 19.681 37.2155 19.8012C37.5641 19.5048 39.9965 14.1677 41.126 12.7036L40.9512 12.2827C33.8603 8.89223 38.7575 -2.36289 46.7813 0.445468C49.131 1.26773 50.6737 3.62546 50.6737 5.99786C50.6737 9.94104 46.8716 12.0306 46.8139 12.5568Z" fill="#DE4743"/>
</svg>
